<?xml version="1.0" encoding="UTF-8"?>
<svg data-name="Ebene 1" version="1.1" viewBox="0 0 393.97 219.99" xmlns="http://www.w3.org/2000/svg">
 <defs>
  <style>.cls-1{fill:#ee7402;}.cls-2{fill:#1d1d1b;}</style>
 </defs>
 <path transform="translate(-83.76 -110.76)" d="M473.57,228.63c-5.21,0-98.68-.1-103.46-.08-19.29.08-21.56-11.48-25.05-21.31-3.35-9.46-5.17-12.85-10-12.9-7.3-.07-9.73,6.34-12.48,13.81-3.34,9.07-5.35,20.4-12.53,20.4-11.52,0-11.34-11.33-13.38-24.34-2.15-13.68-4.54-28.43-12-28.9-7.69-.6-13.86,9.59-17.14,25.27-2.77,13.23-6.09,28-19.48,28.63-27.82,1.19-30.8-21.22-33.07-41.11-2.35-20.61-4.92-37-12.22-35.37s-13.95,13.74-18.54,40.45c-3.5,20.36-7.4,35.83-17.91,36-20.26.36-21.12-29.76-24.76-58.49-3.18-25.16-8.21-46.74-14.28-46.74-4.71,0-10.34,1.78-17.47,29.69a537.59,537.59,0,0,0-12.39,66c-1.59,13.24-4.86,30.33-5.49,32.77s-3.21,20.86-6.35,25.17c-3.8,5.23-.25-22.79-.05-25.27.74-9.25,2.68-18.05,4.25-31.06C95.62,172.13,103,111,129.88,110.76h.18c20,0,24.6,36.11,29,71,1.76,13.87,3.45,38.45,7.66,38.27,2.08-.09,2.06-1.7,3.89-6.65,2.11-5.68,3.84-13.64,5.67-22.07,5-22.81,10.59-48.66,28.21-48.87,20-.25,22.45,21.75,24.66,41.14,2.63,23,2.25,37,16.52,36.59,6.09-.19,11.22-8.24,14-21.49,3.06-14.66,9.63-32.88,24.69-33.4h.51c16.56,0,20,22.11,22.56,38.29.78,5,1.52,15,3.19,15.16s3.33-7.18,4.63-10.71c3.85-10.44,8.64-23.45,19.56-23.71,13.44-.34,17.1,10.59,20,19.35,3.41,10.13,5.8,16.8,15.27,16.8,1.57,0,96.51.7,103.44.7,0,0,4.16-.09,4.16,4C477.73,228.24,473.57,228.63,473.57,228.63Z" fill="#ee7402"/>
 <g fill="#fff">
  <path transform="translate(-83.76 -110.76)" d="M161.94,272.75c0-1.19.65-1.46,1.46-1.46h4.12c.85,0,1.31.54,1.62,1.34l7,17.48L183,272.67a1.83,1.83,0,0,1,1.73-1.38h4c.81,0,1.47.27,1.47,1.46V296c0,1.2-.66,1.47-1.47,1.47h-2.07c-.81,0-1.47-.27-1.47-1.47V279H185L178,296.16c-.31.77-.57,1.31-1.42,1.31h-1.12c-.85,0-1.15-.54-1.46-1.31L167,279.29h-.08V296c0,1.2-.65,1.47-1.46,1.47H163.4c-.81,0-1.46-.27-1.46-1.47Z"/>
  <path transform="translate(-83.76 -110.76)" d="m204.67 286.61h2v-0.73c0-2.16-0.88-3.35-3.15-3.35a3.45 3.45 0 0 0-2.74 1c-0.73 0.81-0.69 1.35-1.8 1.35h-2.28c-1.11 0-1.31-0.73-1.07-1.46 0.73-2.55 3.31-4.51 8.23-4.51 6 0 7.67 2.77 7.67 6.93v8.85c0 0.47 0 1 0.07 1.47 0.08 0.69 0 1.35-1.23 1.35h-1.69a1.44 1.44 0 0 1-1.68-1.51l-0.15-0.92h-0.08c-1 1.88-2.81 2.85-5.7 2.85s-6.27-1.43-6.27-5.62c-0.02-4.58 3.9-5.7 9.87-5.7zm-1.92 7.74a3.58 3.58 0 0 0 3.88-3.81v-1h-1.42c-2.62 0-5.35 0.39-5.35 2.55 0 1.72 1.19 2.26 2.89 2.26z"/>
  <path transform="translate(-83.76 -110.76)" d="M217,280.83c0-1.19.66-1.46,1.47-1.46h1.92c.81,0,1.46.27,1.46,1.46V284h.08a8,8,0,0,1,2.66-3.92,4.73,4.73,0,0,1,2.73-1.16c.5,0,.85.23.85.89v2.84c0,1.58-1.93.81-4,2.35A5.32,5.32,0,0,0,222,289.3V296c0,1.2-.66,1.47-1.47,1.47h-2.11c-.81,0-1.47-.27-1.47-1.47Z"/>
  <path transform="translate(-83.76 -110.76)" d="M231.27,271.75c0-1.19.66-1.46,1.47-1.46h2.08c.8,0,1.46.27,1.46,1.46v14.74h0l4.77-6a2.5,2.5,0,0,1,2-1.16h3.31c.43,0,.66.16.66.5,0,.16-.08.31-.31.58l-6.12,7,6.81,8.89a.9.9,0,0,1,.27.58c0,.34-.27.58-.81.58h-3.54a2.24,2.24,0,0,1-1.92-1.2l-5.12-7h0V296c0,1.2-.66,1.47-1.46,1.47h-2.08c-.81,0-1.47-.27-1.47-1.47Z"/>
  <path transform="translate(-83.76 -110.76)" d="M250.25,280.83c0-1.19.66-1.46,1.47-1.46h2.11c.81,0,1.47.27,1.47,1.46v9.55c0,2.62,1.62,3.51,3.15,3.51,2.12,0,3.59-1.78,3.59-4.24v-8.82c0-1.19.65-1.46,1.46-1.46h2.15c.81,0,1.47.27,1.47,1.46V296c0,1.2-.66,1.47-1.47,1.47h-2c-.81,0-1.46-.27-1.46-1.47v-.92h-.08a6.39,6.39,0,0,1-5.58,2.89c-4.43,0-6.32-2.85-6.32-6.32Z"/>
  <path transform="translate(-83.76 -110.76)" d="M272.58,292.15l2.2-.07c1.12,0,1.19.5,1.89,1.34a3.4,3.4,0,0,0,2.65.89c1.27,0,3-.35,3-1.89,0-3.62-11.08-.31-10.7-7.74.16-2.77,2.12-5.81,7.47-5.81,4,0,6.89,1.35,7.74,4.27.23.74.08,1.43-1.08,1.51l-2.19.11c-1.12.08-1-.5-1.77-1.31a3.65,3.65,0,0,0-2.74-.92c-1.35,0-2.65.54-2.65,1.62,0,3.84,11.08.46,11.08,7.73,0,2.35-1.61,6.09-8.35,6.09-3.77,0-6.7-1.12-7.62-4.32A1.17,1.17,0,0,1,272.58,292.15Z"/>
  <path transform="translate(-83.76 -110.76)" d="M301.69,272.75c0-1.19.65-1.46,1.46-1.46h4.12c.85,0,1.31.54,1.62,1.34l7,17.48,6.81-17.44a1.83,1.83,0,0,1,1.73-1.38h4c.81,0,1.46.27,1.46,1.46V296c0,1.2-.65,1.47-1.46,1.47h-2.08c-.81,0-1.46-.27-1.46-1.47V279h-.08l-7.08,17.21c-.31.77-.58,1.31-1.43,1.31h-1.12c-.84,0-1.15-.54-1.46-1.31l-6.93-16.87h-.08V296c0,1.2-.65,1.47-1.46,1.47h-2.08c-.81,0-1.46-.27-1.46-1.47Z"/>
  <path transform="translate(-83.76 -110.76)" d="m344.54 278.87c7 0 10 4.74 10 9.51s-3.43 9.55-10 9.55c-7.08 0-10-4.7-10-9.55s3.46-9.51 10-9.51zm0 15.09c3.35 0 4.81-2.31 4.81-5.54s-1.46-5.58-4.81-5.58-4.85 2.34-4.85 5.58 1.5 5.58 4.85 5.58z"/>
  <path transform="translate(-83.76 -110.76)" d="M359.05,280.83c0-1.19.66-1.46,1.47-1.46h1.92c.81,0,1.47.27,1.47,1.46V284H364a8.11,8.11,0,0,1,2.66-3.92,4.73,4.73,0,0,1,2.73-1.16c.5,0,.85.23.85.89v2.84c0,1.58-1.93.81-4,2.35a5.32,5.32,0,0,0-2.15,4.35V296c0,1.2-.66,1.47-1.47,1.47h-2.11c-.81,0-1.47-.27-1.47-1.47Z"/>
  <path transform="translate(-83.76 -110.76)" d="M372.84,273.79a2.95,2.95,0,1,1,5.89-.08,3.07,3.07,0,0,1-2.93,3A3,3,0,0,1,372.84,273.79Zm.42,7c0-1.19.66-1.46,1.46-1.46h2.12c.81,0,1.46.27,1.46,1.46V296c0,1.2-.65,1.47-1.46,1.47h-2.12c-.8,0-1.46-.27-1.46-1.47Z"/>
  <path transform="translate(-83.76 -110.76)" d="M383.65,292.15l2.2-.07c1.11,0,1.19.5,1.89,1.34a3.4,3.4,0,0,0,2.65.89c1.27,0,3-.35,3-1.89,0-3.62-11.08-.31-10.7-7.74.16-2.77,2.12-5.81,7.47-5.81,4,0,6.89,1.35,7.74,4.27.23.74.08,1.43-1.08,1.51l-2.19.11c-1.12.08-1-.5-1.77-1.31a3.65,3.65,0,0,0-2.74-.92c-1.35,0-2.65.54-2.65,1.62,0,3.84,11.08.46,11.08,7.73,0,2.35-1.61,6.09-8.35,6.09-3.77,0-6.7-1.12-7.62-4.32A1.17,1.17,0,0,1,383.65,292.15Z"/>
  <path transform="translate(-83.76 -110.76)" d="M411.68,278.87c4,0,6.43,1.35,7.86,3.47a1.05,1.05,0,0,1-.54,1.77l-2,.77c-.85.3-1.43-.12-2-.81a3.89,3.89,0,0,0-3-1.27c-3.47,0-4.7,2.89-4.7,6,0,2.93,1.65,5.09,4.62,5.09a3.85,3.85,0,0,0,3.08-1.28c.61-.65,1.15-1.07,2-.77l2.08.77a1.12,1.12,0,0,1,.5,1.78c-1.54,2.11-4.16,3.54-7.82,3.54-6.69,0-9.77-4-9.77-9.36C401.87,283,405.71,278.87,411.68,278.87Z"/>
  <path transform="translate(-83.76 -110.76)" d="M423.85,271.75c0-1.19.65-1.46,1.46-1.46h2.12c.81,0,1.46.27,1.46,1.46v10H429a5.81,5.81,0,0,1,5.23-2.85c4.35,0,6.51,2.81,6.51,6.31V296c0,1.2-.65,1.47-1.46,1.47h-2.16c-.81,0-1.46-.27-1.46-1.47v-9.54a3.12,3.12,0,0,0-3.31-3.47c-2,0-3.43,1.73-3.43,4.2V296c0,1.2-.65,1.47-1.46,1.47h-2.12c-.81,0-1.46-.27-1.46-1.47Z"/>
  <path transform="translate(-83.76 -110.76)" d="M454.84,278.87c6.12,0,9.24,3.54,9.24,9.43a1.31,1.31,0,0,1-1.5,1.43H450.22c0,2.19,1.66,4.31,5,4.31a4.5,4.5,0,0,0,3-.92,2.4,2.4,0,0,1,2.39-.81l1.81.46c1.07.27,1.07,1,.65,1.62-1.54,2.42-4.16,3.54-8,3.54-6.24,0-9.9-3.74-9.9-9.47S449,278.87,454.84,278.87Zm4.08,7.62c0-1.81-.88-4-3.93-4a4.39,4.39,0,0,0-4.77,4Z"/>
  <path transform="translate(-83.76 -110.76)" d="M161.71,312a.7.7,0,0,1,.7-.7h9.07a.7.7,0,0,1,.7.7v.53a.69.69,0,0,1-.7.7h-7.64v6.39h7.39a.7.7,0,0,1,.7.7v.5a.7.7,0,0,1-.7.7h-7.39v8.12a.7.7,0,0,1-.7.7h-.73a.7.7,0,0,1-.7-.7Z"/>
  <path transform="translate(-83.76 -110.76)" d="M180.25,322.63l3-.12v-1c0-1.68-.7-2.94-3.36-2.94-2,0-2.91.7-3.28,1.82-.14.39-.33.67-.75.67h-.79a.56.56,0,0,1-.53-.7c.65-2.44,2.52-3.5,5.38-3.5,3.55,0,5.37,1.6,5.37,4.42v6.53c0,.58.06,1.26.12,1.87a.65.65,0,0,1-.65.7H184a.7.7,0,0,1-.7-.7v-1h-.06c-.89,1.65-2.88,2.1-4.42,2.1-3.11,0-4.73-1.74-4.73-3.84C174.06,323.75,176.63,322.77,180.25,322.63Zm-1,6.44c1.79,0,4-1,4-3.28v-1.71l-2.3.09c-3,.14-4.73.58-4.73,2.63C176.24,328.28,177.36,329.07,179.24,329.07Z"/>
  <path transform="translate(-83.76 -110.76)" d="M196.35,316.86c2.57,0,4.36,1,5.15,2.71a.62.62,0,0,1-.39.85l-.68.19a.85.85,0,0,1-1-.45,3.33,3.33,0,0,0-3.13-1.45c-2.89,0-4.48,2.35-4.48,5.37,0,2.38,1.23,4.82,4.48,4.82a3.38,3.38,0,0,0,3.16-1.57c.23-.34.48-.59.87-.45l.84.28a.57.57,0,0,1,.34.81,5.74,5.74,0,0,1-5.24,2.78,6.3,6.3,0,0,1-6.66-6.67C189.63,319.52,192.68,316.86,196.35,316.86Z"/>
  <path transform="translate(-83.76 -110.76)" d="M205.64,311.31a.7.7,0,0,1,.7-.7H207a.69.69,0,0,1,.7.7v8.18h0a4.85,4.85,0,0,1,4.51-2.44c1.57,0,4.7.82,4.7,4.48v8.15a.69.69,0,0,1-.7.7h-.67a.7.7,0,0,1-.7-.7v-7.22c0-2.77-1.73-3.58-3.19-3.58a4,4,0,0,0-4,4.19v6.61a.69.69,0,0,1-.7.7h-.67a.7.7,0,0,1-.7-.7Z"/>
  <path transform="translate(-83.76 -110.76)" d="M227.12,322.63l3-.12v-1c0-1.68-.7-2.94-3.36-2.94-2,0-2.91.7-3.28,1.82-.13.39-.33.67-.75.67H222a.56.56,0,0,1-.53-.7c.65-2.44,2.52-3.5,5.38-3.5,3.55,0,5.38,1.6,5.38,4.42v6.53c0,.58.05,1.26.11,1.87a.65.65,0,0,1-.65.7h-.81a.7.7,0,0,1-.7-.7v-1h-.06c-.89,1.65-2.88,2.1-4.42,2.1-3.11,0-4.73-1.74-4.73-3.84C220.93,323.75,223.5,322.77,227.12,322.63Zm-1,6.44c1.79,0,4-1,4-3.28v-1.71l-2.29.09c-3,.14-4.74.58-4.74,2.63C223.11,328.28,224.23,329.07,226.11,329.07Z"/>
  <path transform="translate(-83.76 -110.76)" d="M237.11,317.92a.7.7,0,0,1,.7-.7h.67a.69.69,0,0,1,.7.7v1.57h0a4.81,4.81,0,0,1,4.48-2.44c1.57,0,4.71.82,4.71,4.48v8.15a.7.7,0,0,1-.7.7H247a.7.7,0,0,1-.7-.7v-7.22c0-2.77-1.73-3.58-3.19-3.58a4,4,0,0,0-3.95,4.19v6.61a.69.69,0,0,1-.7.7h-.67a.7.7,0,0,1-.7-.7Z"/>
  <path transform="translate(-83.76 -110.76)" d="M251.78,317.89a.51.51,0,0,1,.48-.67h1c.42,0,.64.28.78.67l3.08,9.38h.06l3.11-9.38a1,1,0,0,1,.92-.67h.53a1,1,0,0,1,.93.67l3.27,9.38H266l3-9.38c.14-.39.37-.67.79-.67h.92a.51.51,0,0,1,.48.67l-4.06,11.82a1,1,0,0,1-.93.67h-.75c-.42,0-.65-.28-.79-.67l-3.16-9.35h-.06l-3.22,9.35c-.14.39-.36.67-.78.67h-.65a1,1,0,0,1-.92-.67Z"/>
  <path transform="translate(-83.76 -110.76)" d="M280.12,322.63l3-.12v-1c0-1.68-.7-2.94-3.36-2.94-2,0-2.91.7-3.27,1.82-.14.39-.34.67-.76.67H275a.55.55,0,0,1-.53-.7c.64-2.44,2.52-3.5,5.37-3.5,3.56,0,5.38,1.6,5.38,4.42v6.53c0,.58.05,1.26.11,1.87a.64.64,0,0,1-.64.7h-.82a.7.7,0,0,1-.7-.7v-1h-.05c-.9,1.65-2.89,2.1-4.43,2.1-3.1,0-4.73-1.74-4.73-3.84C273.93,323.75,276.51,322.77,280.12,322.63Zm-1,6.44c1.79,0,4-1,4-3.28v-1.71l-2.29.09c-3,.14-4.73.58-4.73,2.63C276.12,328.28,277.24,329.07,279.11,329.07Z"/>
  <path transform="translate(-83.76 -110.76)" d="M290.31,311.31a.7.7,0,0,1,.7-.7h.67a.69.69,0,0,1,.7.7v18.37a.69.69,0,0,1-.7.7H291a.7.7,0,0,1-.7-.7Z"/>
  <path transform="translate(-83.76 -110.76)" d="M298.1,318.9h-1.91c-.39,0-.7-.19-.7-.59v-.5c0-.39.31-.59.7-.59h1.91v-3.11a.68.68,0,0,1,.69-.69h.65a.69.69,0,0,1,.7.69v3.11h3.22c.39,0,.7.2.7.59v.5c0,.4-.31.59-.7.59h-3.22v7.65c0,1.2.39,2.15,1.93,2.15a5.94,5.94,0,0,0,.73,0,.63.63,0,0,1,.64.62v.42a.77.77,0,0,1-.7.76,9.88,9.88,0,0,1-1.2,0c-2.24,0-3.44-.95-3.44-3.55Z"/>
  <path transform="translate(-83.76 -110.76)" d="M314.89,318.9h-2.1a.63.63,0,0,1-.7-.61v-.45a.63.63,0,0,1,.7-.62h2.1v-.89c0-2.78,1-5.72,4.34-5.72.34,0,.68,0,1,.06.68,0,.7.42.7.81V312c0,.5-.17.61-.53.61s-.59-.05-1.15-.05c-1.93,0-2.29,2-2.29,3.92v.78h3.11a.62.62,0,0,1,.69.62v.45a.62.62,0,0,1-.69.61H317v10.78a.7.7,0,0,1-.7.7h-.68a.7.7,0,0,1-.7-.7Z"/>
  <path transform="translate(-83.76 -110.76)" d="M323.38,317.92a.7.7,0,0,1,.7-.7h.64a.7.7,0,0,1,.7.7v7.25c0,2.78,1.74,3.59,3.19,3.59a4.06,4.06,0,0,0,4-4.23v-6.61a.7.7,0,0,1,.7-.7H334a.7.7,0,0,1,.7.7v11.76a.7.7,0,0,1-.7.7h-.64a.7.7,0,0,1-.7-.7v-1.54h-.06a4.83,4.83,0,0,1-4.51,2.44,4.38,4.38,0,0,1-4.67-4.51Zm1.82-5.09a1.38,1.38,0,0,1,1.4-1.4,1.41,1.41,0,0,1,1.43,1.4,1.43,1.43,0,0,1-1.43,1.42A1.4,1.4,0,0,1,325.2,312.83Zm5.21,0a1.38,1.38,0,0,1,1.4-1.4,1.4,1.4,0,0,1,1.42,1.4,1.43,1.43,0,0,1-1.42,1.42A1.4,1.4,0,0,1,330.41,312.83Z"/>
  <path transform="translate(-83.76 -110.76)" d="M339.48,317.92a.7.7,0,0,1,.7-.7h.61a.69.69,0,0,1,.7.7v2.5h.06a5.74,5.74,0,0,1,4.73-3.37c.51,0,.73.17.73.65v.73a.6.6,0,0,1-.67.61c-2.66,0-4.79,2.27-4.79,5.38v5.26a.7.7,0,0,1-.7.7h-.67a.7.7,0,0,1-.7-.7Z"/>
  <path transform="translate(-83.76 -110.76)" d="M357.34,312a.7.7,0,0,1,.7-.7h9.33a.7.7,0,0,1,.7.7v.53a.69.69,0,0,1-.7.7h-7.9v6.39h7.64a.69.69,0,0,1,.7.7v.5a.69.69,0,0,1-.7.7h-7.64v6.89h7.9a.7.7,0,0,1,.7.7v.53a.7.7,0,0,1-.7.7H358a.7.7,0,0,1-.7-.7Z"/>
  <path transform="translate(-83.76 -110.76)" d="M372.27,317.92a.69.69,0,0,1,.7-.7h.61a.7.7,0,0,1,.7.7v2.5h.06a5.74,5.74,0,0,1,4.73-3.37c.5,0,.73.17.73.65v.73a.61.61,0,0,1-.68.61c-2.65,0-4.78,2.27-4.78,5.38v5.26a.7.7,0,0,1-.7.7H373a.69.69,0,0,1-.7-.7Z"/>
  <path transform="translate(-83.76 -110.76)" d="M382.74,311.31a.69.69,0,0,1,.7-.7h.67a.7.7,0,0,1,.7.7v8.24h0a5.83,5.83,0,0,1,4.87-2.69c2.88,0,6.08,2.13,6.08,6.94,0,4.12-2.86,6.95-6.45,6.95a4.9,4.9,0,0,1-4.5-2.47h0v1.4a.7.7,0,0,1-.7.7h-.67a.69.69,0,0,1-.7-.7Zm6.55,17.59c2.77,0,4.28-2.3,4.28-5,0-3.47-1.85-5.18-4.25-5.18-2.19,0-4.51,1.79-4.51,5.26C384.81,326.69,386.52,328.9,389.29,328.9Z"/>
  <path transform="translate(-83.76 -110.76)" d="M400,317.92a.69.69,0,0,1,.7-.7h.61a.7.7,0,0,1,.7.7v2.5h.06a5.74,5.74,0,0,1,4.73-3.37c.5,0,.73.17.73.65v.73a.61.61,0,0,1-.68.61c-2.65,0-4.78,2.27-4.78,5.38v5.26a.7.7,0,0,1-.7.7h-.67a.69.69,0,0,1-.7-.7Z"/>
  <path transform="translate(-83.76 -110.76)" d="M416,316.86c3.53,0,6.08,2.07,6.08,6.55,0,.67-.37.87-.79.87h-9.83a4.31,4.31,0,0,0,4.51,4.65,4.54,4.54,0,0,0,3.73-1.68.7.7,0,0,1,.89-.34l.7.22a.57.57,0,0,1,.25.87,6.37,6.37,0,0,1-5.71,2.75c-4.62,0-6.58-3.39-6.58-6.72C409.25,319.85,411.88,316.86,416,316.86Zm3.92,5.74a3.76,3.76,0,0,0-3.95-4,4.22,4.22,0,0,0-4.48,4Z"/>
  <path transform="translate(-83.76 -110.76)" d="M432.3,316.86c2.57,0,4.36,1,5.15,2.71a.62.62,0,0,1-.39.85l-.68.19a.85.85,0,0,1-1-.45,3.33,3.33,0,0,0-3.13-1.45c-2.89,0-4.48,2.35-4.48,5.37,0,2.38,1.23,4.82,4.48,4.82a3.38,3.38,0,0,0,3.16-1.57c.23-.34.48-.59.87-.45l.84.28a.57.57,0,0,1,.34.81,5.74,5.74,0,0,1-5.24,2.78,6.3,6.3,0,0,1-6.66-6.67C425.58,319.52,428.63,316.86,432.3,316.86Z"/>
  <path transform="translate(-83.76 -110.76)" d="M441.59,311.31a.7.7,0,0,1,.7-.7H443a.69.69,0,0,1,.7.7v8.18h0a4.85,4.85,0,0,1,4.51-2.44c1.57,0,4.7.82,4.7,4.48v8.15a.69.69,0,0,1-.7.7h-.67a.7.7,0,0,1-.7-.7v-7.22c0-2.77-1.73-3.58-3.19-3.58a4,4,0,0,0-4,4.19v6.61a.69.69,0,0,1-.7.7h-.67a.7.7,0,0,1-.7-.7Z"/>
  <path transform="translate(-83.76 -110.76)" d="M458,318.9h-1.9c-.4,0-.7-.19-.7-.59v-.5c0-.39.3-.59.7-.59H458v-3.11a.69.69,0,0,1,.7-.69h.64a.68.68,0,0,1,.7.69v3.11h3.22c.4,0,.7.2.7.59v.5c0,.4-.3.59-.7.59H460v7.65c0,1.2.4,2.15,1.94,2.15a5.78,5.78,0,0,0,.72,0,.64.64,0,0,1,.65.62v.42a.77.77,0,0,1-.7.76,10,10,0,0,1-1.21,0c-2.24,0-3.44-.95-3.44-3.55Z"/>
 </g>
</svg>
