<?xml version="1.0" encoding="UTF-8"?>
<svg width="393.86" height="167.47" data-name="Ebene 1" version="1.1" viewBox="0 0 393.86 167.47" xmlns="http://www.w3.org/2000/svg">
 <defs>
  <style>.cls-1{fill:#ee7402;}.cls-2{fill:#1d1d1b;}</style>
 </defs>
 <path class="cls-1" d="m389.75 117.87c-5.21 0-98.68-0.1-103.46-0.08-19.29 0.08-21.56-11.48-25.05-21.31-3.35-9.46-5.17-12.85-10-12.9-7.3-0.07-9.73 6.34-12.48 13.81-3.34 9.07-5.35 20.4-12.53 20.4-11.52 0-11.34-11.33-13.38-24.34-2.15-13.68-4.54-28.43-12-28.9-7.69-0.6-13.86 9.59-17.14 25.27-2.77 13.23-6.09 28-19.48 28.63-27.82 1.19-30.8-21.22-33.07-41.11-2.35-20.61-4.92-37-12.22-35.37s-13.95 13.74-18.54 40.45c-3.5 20.36-7.4 35.83-17.91 36-20.26 0.36-21.12-29.76-24.76-58.49-3.18-25.16-8.21-46.74-14.28-46.74-4.71 0-10.34 1.78-17.47 29.69a537.59 537.59 0 0 0-12.39 66c-1.59 13.24-4.86 30.33-5.49 32.77s-3.21 20.86-6.35 25.17c-3.8 5.23-0.25-22.79-0.05-25.27 0.74-9.25 2.68-18.05 4.25-31.06 5.85-49.12 13.23-110.25 40.11-110.49h0.18c20 0 24.6 36.11 29 71 1.76 13.87 3.45 38.45 7.66 38.27 2.08-0.09 2.06-1.7 3.89-6.65 2.11-5.68 3.84-13.64 5.67-22.07 5-22.81 10.59-48.66 28.21-48.87 20-0.25 22.45 21.75 24.66 41.14 2.63 23 2.25 37 16.52 36.59 6.09-0.19 11.22-8.24 14-21.49 3.06-14.66 9.63-32.88 24.69-33.4h0.51c16.56 0 20 22.11 22.56 38.29 0.78 5 1.52 15 3.19 15.16s3.33-7.18 4.63-10.71c3.85-10.44 8.64-23.45 19.56-23.71 13.44-0.34 17.1 10.59 20 19.35 3.41 10.13 5.8 16.8 15.27 16.8 1.57 0 96.51 0.7 103.44 0.7 0 0 4.16-0.09 4.16 4 0.05 3.08-4.11 3.47-4.11 3.47z"/>
</svg>
